<svg xmlns="http://www.w3.org/2000/svg" width="530" height="572" fill="none"><path stroke="#000" stroke-miterlimit="10" stroke-width="4" d="M515.4 0H14A12 12 0 0 0 2 12v501.4a12 12 0 0 0 12 12h501.4a12 12 0 0 0 12-12V12a12 12 0 0 0-12-12Z"/><path fill="#000" d="M113 526.4h274.6c1.2-10.5-40.9-233.6-90.3-305.3-5.6-8.1-53.6-14-71.2 6.2-93.4 107.2-115.3 296.5-113 299.1Z"/><path fill="#FF9581" d="M303.8 239.6c7.8 20.2 37.2 91 53.2 141.8 10.7 34 14.8 62.7 17.1 70.2 0 0-81-26-99.3-26-28-.2-73.2 58.5-62.1 65.9 17.4 11.6 100.3 50.9 166.5 63.2 36 6.8 103.7-39 98.4-75.3-7.6-51-99.8-185.5-134.8-223.7-18.3-19.8-48.5-40.7-39-16Z"/><path fill="#000" d="M482.5 490.2c-1.7 36.7-47.7 67.7-74.3 69.3-46 2.8-184-37.4-184-37.4l53.6-103.3s94 31.9 96.3 32.8c-.8-2.8-24-89.8-34.3-118.6l-1.8-4.9c-3-8-7-18.5-11.6-29.9l-7.7-19.5-22.4-55c15.8 2.6 31.4 11 57 37.8 25.6 26.9 132 168 129.2 228.7Z"/><path fill="#2B454E" d="m260 499.8 11.5-22 11.5-21.3c4-7.4 8.1-14.7 11.3-22.5 0-.1-.1-.2-.2-.1-4.9 6.4-8.8 13.4-12.8 20.3a1251.9 1251.9 0 0 0-23.4 43.1c-3.8 7.4-7.6 15-10.4 23 0 .3.4.6.6.3a219 219 0 0 0 11.9-20.9Z"/><path fill="#1C1C1C" d="m402.8 466.8-28.7-15.2c-.8-2.8-24-89.7-34.3-118.6l-1.8-4.9c-3-8-7-18.5-11.6-29.9l76.4 168.6Z"/><path fill="#1C1C1C" d="M426.5 479.4a237 237 0 0 0-38.4-22.9c-4.8-2.1-10-3.7-14.7-5.8-.4-.2-.6.4-.3.5 4.5 2 8.8 4.9 13 7.2 4.6 2.5 9 4.9 13.6 7.2 9 4.6 17.7 9.5 26.6 14.2.2 0 .4-.2.2-.4Z"/><path fill="#fff" d="M405.7 457.2c-7.2 0-50.7-11.6-57-5.6-38.5 36.4-50.7 29-59 33.8-63.5 36.5-148.3 79.5-178.6 79.7-46 .4-64.2-38.1-56.6-74.6 15.1-72 112.2-212.3 156.1-249.6 23.3-19.7 21.5 10 11.9 42.4-5.7 19-15.6 47.2-25.7 75-8.9 24.6-32.5 87.6-33 89.1v.2c0 .2.1.2.5.1 2-.3 56.3-26 111-40 19.2-5 59.3-12 73.7-5.6 8.5 3.8 8.7 8.9 8.7 8.9s6.8-.6 14 5.3c4.8 4 6.3 9.6 6.3 9.6s7.5 1 11.4 5.4c4.7 5.1 5 10.6 5 10.6 10.2 2.7 11.3 15.3 11.3 15.3Z"/><path fill="#1A2E35" d="M341.5 409.5c-5.8 0-11.4 1-17.1 2-.4 0-.4.6 0 .5 5.6-.6 11.3-.7 16.9-.9a313 313 0 0 1 16.8-.3c-5.6-.9-11-1.4-16.6-1.3Zm36.4 16a69.5 69.5 0 0 0-30.4-2.7c-.4.1-.4.7 0 .7a118.2 118.2 0 0 1 30.4 2Zm16.5 16.1a68 68 0 0 0-28.7-5.4c-.4 0-.6.6-.2.6 10.7 1 18.4 2.6 28.7 5.2.3.1.4-.3.2-.4Zm-121.8-33.3c-4.8.6-9.5 2-14.2 3.2A269.6 269.6 0 0 0 215 427c-.3.2-.1.7.3.6 9.5-3.3 19-6.5 28.7-9.5l14.1-4.6c4.9-1.6 9.9-2.8 14.6-4.6.4 0 .3-.6 0-.6Z"/><path fill="#000" d="M234.6 418.6c10-3.4 14.6-3.4 14.6-3.4l57.2 96.5s-157.5 56.7-189.8 60A64.5 64.5 0 0 1 47 509c-.9-57 92.1-194 139-247 21.4-24.3 46.4-41.9 52.7-38 7.6 4.8-6.1 35.3-13.3 58-13.3 42.1-61 165.7-61 165.7s58.3-25 70.3-29Z"/><path fill="#1C1C1C" d="M248.7 415.1c-8.9.5-47.2 13.9-66 22a323.9 323.9 0 0 0-81.3 49.7c-.3.3 0 .8.3.5a489.5 489.5 0 0 1 52.1-32 491.6 491.6 0 0 1 54.8-26 454.2 454.2 0 0 1 39.6-13.3c3-.8.8-.9.5-.9Z"/><path fill="#1C1C1C" d="M211 330.7c-2.4 3.9-4.9 7.7-7 11.8l-.2.6c3-9.3 6-18.6 8.7-27.9.2-.6-.8-.9-1-.3-13.5 34.2-26 69-38.3 103.7-3.4 9.7-6.4 19.5-9.5 29.3 0 .4.5.6.6.2 3.8-8.4 7.5-16.8 10.9-25.3a1622.7 1622.7 0 0 0 25.8-71.4l4.8-8c2.2-4 4-8.2 5.8-12.3.2-.5-.4-.8-.7-.4Zm57 160-12.4-21.4-12.2-21c-4.1-7.2-8.1-14.7-13-21.5 0-.1-.3 0-.2.2 2.8 7.4 6.7 14.5 10.4 21.5a1263.7 1263.7 0 0 0 24.3 42.7c4.3 7 8.8 14.4 14 20.9.2.2.7 0 .6-.3a238 238 0 0 0-11.4-21.1Z"/><path fill="#1C1C1C" d="M308.6 512c-4.7-9.4-12-18.6-17.5-27.5-.2-.3-.7 0-.6.4 5 8.3 9.6 17.3 14.3 25.8-21.6 8.9-44.6 16.9-66.6 24.7a1188 1188 0 0 1-68.5 22.2c-13 3.8-25.9 7.8-38.8 11.2-.9.2-.6.9.2.7a589.5 589.5 0 0 0 68.9-18.3 1426 1426 0 0 0 68.5-24c12.7-4.7 40.5-14.5 40.1-15.3Z"/><path fill="#fff" d="M271.2 408.4c-29.8 7.6-64 20.1-79.3 26.1l-1.2.4c-13.5 5.4-21.8 9.3-23.8 9.6l-.4-.2a18 18 0 0 0-4.2-2.4c-3.8-1.4-40.4-6-39.5-17.3.9-11.2 15.8-10.5 18-10.3-2.4-.5-22.2-5.2-15.8-15 4.6-7.1 24.3-6 26.3-6-2-.7-20.3-6.6-14-16.7 4.5-7.3 26.4-6.3 29-6-2-.7-18.4-3.4-10.8-12.1 5.3-6.1 46.6 0 65 9.2a193.1 193.1 0 0 1 50.7 40.7Z"/><path fill="#1A2E35" d="m191.9 434.5-1.2.4a131.5 131.5 0 0 0-49.2-20c-1.1-.2-1.2-.8 0-.8a90.7 90.7 0 0 1 50.4 20.4ZM152.2 394c26 5.2 37.7 11 60.1 25.2.3.2.7-.3.4-.5-20.9-15.6-33.9-23.4-60.3-25.3-1.2-.1-1.4.4-.2.6Zm14.8-22.8c25 6.7 38.2 12.4 58.3 28.7.5.4 1-.2.6-.6a93.5 93.5 0 0 0-58.6-28.8c-1.6-.2-1.8.3-.2.7Z"/><path fill="#fff" stroke="#000" stroke-miterlimit="10" stroke-width=".6" d="M292.1 271c-14.8 5.4-43.5-14.9-56-32.5-.8-1.2-.4-15-.6-31.9-.2-10.2-.7-21.6-1.9-32l66.7 8.5s-4 22.4-1.8 40.4c.2 1.5.5 2.9 1 4.2l.1.7c2.2 7.9 6.8 37.5-7.5 42.7Z"/><path fill="#000" stroke="#000" stroke-miterlimit="10" stroke-width=".6" d="m299.6 228.4.4 1.4c-40-1.7-55.1-19.2-65-36-.2-6.4-.6-13-1.4-19.1l66.7 8.4s-4 22.4-1.8 40.4c.2 1.5.5 2.9 1 4.2l.1.7Z"/><path fill="#fff" stroke="#000" stroke-miterlimit="10" stroke-width="1.3" d="M206.3 104.8c-3.6 24 18.2 88.3 36.7 100.6 26.7 18 65.7 14.3 79.7-16.8 13.5-30-16.4-113.4-36.6-124.2-29.7-15.8-74.4 5-79.8 40.4Z"/><path fill="#000" d="M268 133.7c-.2-.1-.3.4-.3.5 1.6 4.3 2.7 9.5-.7 12.3-.1 0 0 .3 0 .2 4.6-2.3 3.1-9.1 1-13Z"/><path fill="#000" d="M262.5 130.5c-7.1 1.8-3 16 3.6 14.3 6.6-1.6 2.4-15.8-3.6-14.3Zm32.2-4.8c0-.2.4.1.4.3 1.2 4.4 3.2 9.3 7.6 9.6.1 0 .2.2 0 .3-5 .7-7.7-5.8-8-10.2Z"/><path fill="#000" d="M297.3 120c6.9-2.6 11.6 11.4 5.1 13.8-6.3 2.3-11-11.7-5.1-13.8Zm-42.3 5.6c1.8-1 3.3-2.3 5-3.5 1.9-1.4 3.5-2.3 4.3-4.6.5-1.2-.4-3-1.5-3.5-2.7-1.2-5.4-.1-7.7 1.5-2.6 1.7-4 3.6-5 6.5-.8 2.8 2.6 5 5 3.6Zm45.7-14.4c-2 .3-4 .2-6 .2-2.4 0-4.3.3-6.3-1-1.1-.7-1.5-2.6-1-3.7 1.5-2.6 4.3-3.4 7-3.6 3.1-.2 5.5.5 8 2.3 2.4 1.7 1 5.5-1.7 5.8Zm-22.6 63.3c1.4.7 2.8 1.8 4.5 1.5a12 12 0 0 0 4.4-2.5s.3 0 .2.2a6 6 0 0 1-4.9 4c-2 .2-3.5-1.2-4.6-2.9-.1-.2.2-.4.4-.3Z"/><path fill="#000" d="M278.9 160a16 16 0 0 0 12 3.7 19.8 19.8 0 0 0 6.4-1.7l.9-.4c.5-.3.6-.8.6-1.3l-.2-.4-.1-.5-2.7-8.4c1.4.2 8.5 1.2 7.9-.5a227.6 227.6 0 0 0-19-43.6c-.2-.5-1-.1-.8.3 4.4 14 11.2 27.2 15.9 41.2-2.3-.2-6-.6-7.7 0-.5.2 3.7 9.6 4 11.2v.2c-5.5 2.3-10.3 1.9-17-.3-.3-.2-.6.2-.2.5Z"/><path fill="#000" d="M213.3 150.1c3.8-3 8.6-18.9 10.8-25.4 2.3-6.8-4.5-34.4-6.8-42.5a45.2 45.2 0 0 0-11 22.8c-1.6 10 1.5 27.7 7 45.1Z" opacity=".2"/><path fill="#1A2E35" d="M276.3 90a22 22 0 0 1-17.2 12.8c-7.4.9-15.9-2-20.4-8.1-.1-.2-.4 0-.3.2a22.3 22.3 0 0 0 20.9 9.7 22.7 22.7 0 0 0 17.5-14.3c.2-.3-.3-.5-.5-.2Zm-36.9-46c-12.2 3.9-21.5 14-23.6 23.6a24.7 24.7 0 0 0 2.1 16.1c.1.2.6 0 .5-.2a27 27 0 0 1 5.5-27c7-8.1 17.8-13 28.7-12.2 5.7.5 10.8 2.5 14 5.9.4.4 1.3-.2 1-.6-5.6-6.7-17.2-9-28.2-5.5Zm78.9 6.2A28.1 28.1 0 0 0 302.6 39c-8.9-2.5-17.2.6-25.4 3.9-.2 0 0 .4.2.3 7-2.7 14.2-5.1 21.8-3.7 6.2 1.3 12 4.6 16 9.5a27 27 0 0 1-1.5 35.2 27.4 27.4 0 0 1-20.1 8.1c-.3 0-.4.5-.1.5a28 28 0 0 0 29-22.8c1-6.8-.3-14-4.2-19.8Z"/><path fill="#000" d="M206.2 118.5s-18-18.7-11.8-34.2c3.5-8.7 22.1-13 22.1-13s3-12.2 17.2-20c14.3-7.8 35.1-4 35.1-4S281 34.8 297 38.8c22.1 5.5 28 35.2 11.4 49.9-11.6 10.3-33.2 3.6-33.2 3.6-1.7.7-16.7 16.7-34.8 4.4 0 0-8.3 13-20.2 8.9 0 0-2.2 11.4-14 12.9Z"/><path fill="#EDEFEF" d="m299.4 227-14.2 39.2-49.6-46.8-12.9 16s49.7 75.6 49.8 72l14.6-33.7 23.7 22.2-4-57.8-7.4-11.1Z"/><path fill="#1C1C1C" d="M310.4 267.2c-1-9.5-1.7-19.1-3.1-28.6 0-.3-.6-.4-.7 0-1.5 9.3 2.5 45.6 2.7 54.4v-.1c-1-1-22-19.5-22.2-19.2a420 420 0 0 0-14.7 32.2 1437 1437 0 0 0-47-66.8c-.3-.3-.8 0-.6.4 7 12.7 46.8 71.3 47.4 71.1.4.3 13.7-30 15.2-35.6 3.6 4 24.8 25 24.9 23.6 0-9.6-.9-21.8-1.9-31.4Z"/><path fill="#fff" stroke="#000" stroke-miterlimit="10" stroke-width="1.3" d="M228.4 156.6s-18.5-18.8-27.3-11.9c-8.8 7 7.6 36 19.7 38.3 12 2.3 14.4-8.8 14.4-8.8l-6.8-17.6Z"/><path fill="#1A2E35" d="M206 153c-.2 0-.1.2 0 .2 8.5 2 14 8.6 18.2 15.8-2.9-2.6-6.4-3.6-9.8-.2-.2.2 0 .5.2.4 3.2-1.2 5.6-1 8.3 1.2 1.8 1.6 3.3 3.7 4.8 5.7.5.6 1.7 0 1.3-.7l-.1-.2c-1.5-10.2-11.8-23-22.9-22.3Z"/></svg>