<svg width="66" height="15" viewBox="0 0 66 15" fill="none" xmlns="http://www.w3.org/2000/svg">
<path d="M0.996 12V3.6H4.632C5.384 3.6 6.032 3.724 6.576 3.972C7.12 4.212 7.54 4.56 7.836 5.016C8.132 5.472 8.28 6.016 8.28 6.648C8.28 7.272 8.132 7.812 7.836 8.268C7.54 8.716 7.12 9.06 6.576 9.3C6.032 9.54 5.384 9.66 4.632 9.66H2.076L2.94 8.808V12H0.996ZM6.336 12L4.236 8.952H6.312L8.436 12H6.336ZM2.94 9.024L2.076 8.112H4.524C5.124 8.112 5.572 7.984 5.868 7.728C6.164 7.464 6.312 7.104 6.312 6.648C6.312 6.184 6.164 5.824 5.868 5.568C5.572 5.312 5.124 5.184 4.524 5.184H2.076L2.94 4.26V9.024ZM16.5402 3.6H18.4842V12H16.5402V3.6ZM12.7242 12H10.7802V3.6H12.7242V12ZM16.6842 8.556H12.5802V6.912H16.6842V8.556ZM23.5196 12V8.568L23.9636 9.744L20.2676 3.6H22.3316L25.1636 8.316H23.9756L26.8196 3.6H28.7276L25.0316 9.744L25.4636 8.568V12H23.5196ZM49.3363 3.6H51.2803V12H49.3363V3.6ZM45.5203 12H43.5763V3.6H45.5203V12ZM49.4803 8.556H45.3763V6.912H49.4803V8.556ZM54.2277 12V3.6H55.8357L59.4117 9.528H58.5597L62.0757 3.6H63.6717L63.6957 12H61.8717L61.8597 6.396H62.1957L59.3877 11.112H58.5117L55.6437 6.396H56.0517V12H54.2277Z" fill="black"/>
<g filter="url(#filter0_i_1569_5)">
<path d="M34.125 12.625V7.125H31.375V5.75H34.125V3H36.875V5.75H39.625V7.125H36.875V12.625H34.125Z" fill="#101010"/>
</g>
<defs>
<filter id="filter0_i_1569_5" x="31.375" y="3" width="8.75" height="9.825" filterUnits="userSpaceOnUse" color-interpolation-filters="sRGB">
<feFlood flood-opacity="0" result="BackgroundImageFix"/>
<feBlend mode="normal" in="SourceGraphic" in2="BackgroundImageFix" result="shape"/>
<feColorMatrix in="SourceAlpha" type="matrix" values="0 0 0 0 0 0 0 0 0 0 0 0 0 0 0 0 0 0 127 0" result="hardAlpha"/>
<feOffset dx="0.5" dy="0.2"/>
<feGaussianBlur stdDeviation="0.35"/>
<feComposite in2="hardAlpha" operator="arithmetic" k2="-1" k3="1"/>
<feColorMatrix type="matrix" values="0 0 0 0 1 0 0 0 0 1 0 0 0 0 1 0 0 0 0.25 0"/>
<feBlend mode="normal" in2="shape" result="effect1_innerShadow_1569_5"/>
</filter>
</defs>
</svg>
