<svg width="66" height="15" viewBox="0 0 66 15" fill="none" xmlns="http://www.w3.org/2000/svg">
<path d="M0.84 12V3.6H4.68C5.448 3.6 6.108 3.724 6.66 3.972C7.22 4.22 7.652 4.58 7.956 5.052C8.26 5.516 8.412 6.068 8.412 6.708C8.412 7.34 8.26 7.888 7.956 8.352C7.652 8.808 7.22 9.16 6.66 9.408C6.108 9.648 5.448 9.768 4.68 9.768H2.16L3.216 8.772V12H0.84ZM6.036 12L3.948 8.94H6.48L8.58 12H6.036ZM3.216 9.024L2.16 7.932H4.536C5.032 7.932 5.4 7.824 5.64 7.608C5.888 7.392 6.012 7.092 6.012 6.708C6.012 6.316 5.888 6.012 5.64 5.796C5.4 5.58 5.032 5.472 4.536 5.472H2.16L3.216 4.38V9.024ZM16.2988 3.6H18.6748V12H16.2988V3.6ZM13.0588 12H10.6828V3.6H13.0588V12ZM16.4668 8.724H12.8908V6.756H16.4668V8.724ZM23.4348 12V8.448L23.9868 9.876L20.2308 3.6H22.7388L25.4508 8.148H23.9988L26.7228 3.6H29.0268L25.2828 9.876L25.8108 8.448V12H23.4348ZM49.5637 3.6H51.9397V12H49.5637V3.6ZM46.3237 12H43.9477V3.6H46.3237V12ZM49.7317 8.724H46.1557V6.756H49.7317V8.724ZM54.5756 12V3.6H56.5316L60.0116 9.312H58.9796L62.3636 3.6H64.3196L64.3436 12H62.1596L62.1356 6.924H62.5076L59.9756 11.172H58.9196L56.3156 6.924H56.7716V12H54.5756Z" fill="white"/>
<g filter="url(#filter0_i_1569_5)">
<path d="M34.125 12.625V7.125H31.375V5.75H34.125V3H36.875V5.75H39.625V7.125H36.875V12.625H34.125Z" fill="white"/>
</g>
<defs>
<filter id="filter0_i_1569_5" x="31.375" y="3" width="8.75" height="9.825" filterUnits="userSpaceOnUse" color-interpolation-filters="sRGB">
<feFlood flood-opacity="0" result="BackgroundImageFix"/>
<feBlend mode="normal" in="SourceGraphic" in2="BackgroundImageFix" result="shape"/>
<feColorMatrix in="SourceAlpha" type="matrix" values="0 0 0 0 0 0 0 0 0 0 0 0 0 0 0 0 0 0 127 0" result="hardAlpha"/>
<feOffset dx="0.5" dy="0.2"/>
<feGaussianBlur stdDeviation="0.35"/>
<feComposite in2="hardAlpha" operator="arithmetic" k2="-1" k3="1"/>
<feColorMatrix type="matrix" values="0 0 0 0 0 0 0 0 0 0 0 0 0 0 0 0 0 0 0.25 0"/>
<feBlend mode="normal" in2="shape" result="effect1_innerShadow_1569_5"/>
</filter>
</defs>
</svg>
