<svg xmlns="http://www.w3.org/2000/svg" width="100" height="100" viewBox="0 0 50 50"><path d="M29 3c-2.1 0-4.6 1.7-5 9h2c.3-4.4 1.4-7 3-7 .7 0 1.1.4 1.8 1.2 1 1 2 2.2 4.3 2.6a6.2 6.2 0 0 1 0-2c-1.4-.4-2-1.2-2.8-2C31.5 4 30.6 3 29 3Zm12 1a4 4 0 1 0 0 8 4 4 0 0 0 0-8ZM25 14C12.9 14 3 20.2 3 29s9.9 16 22 16 22-7.2 22-16-9.9-15-22-15ZM7.5 15c-1.5 0-2.8.5-4 1.6a5.4 5.4 0 0 0-1 6.2 18 18 0 0 1 7.5-7.2c-.8-.4-1.6-.7-2.5-.7Zm35 0c-.9 0-1.7.2-2.5.6a18 18 0 0 1 7.5 7.2c1-2 .6-4.5-1-6.2a6.3 6.3 0 0 0-4-1.7ZM17 23a3 3 0 1 1 0 6 3 3 0 0 1 0-6Zm16 0a3 3 0 1 1 0 6 3 3 0 0 1 0-6ZM16 34c.3 0 .6.2.7.4.1.2 2.5 3.3 8.3 3.3 6 0 8.3-3.2 8.3-3.3a1 1 0 0 1 1.4-.2c.4.3.5 1 .2 1.4-.1.1-3 4-9.9 4-7 0-9.8-3.9-10-4a1 1 0 0 1 .3-1.4c.2-.2.5-.2.8-.2Z"/></svg>